<svg width="116" height="44" viewBox="0 0 116 44" fill="none" xmlns="http://www.w3.org/2000/svg">
<path d="M26.592 32.5L25.248 28.244H17.792L16.448 32.5H12.64L19.904 10.74H23.296L30.592 32.5H26.592ZM19.872 21.588L18.88 24.724H24.128L23.136 21.588L21.536 16.084L19.872 21.588ZM43.1943 31.956C42.6396 32.212 41.9996 32.4147 41.2743 32.564C40.5489 32.7347 39.8129 32.82 39.0663 32.82C37.8289 32.82 36.8369 32.564 36.0903 32.052C35.3436 31.54 34.7996 30.8253 34.4583 29.908C34.1383 28.9907 33.9783 27.9453 33.9783 26.772V19.476H31.3543V16.276H33.9783V12.052H37.6583V16.276H42.7143V19.476H37.6583V26.772C37.6583 27.7533 37.8396 28.436 38.2023 28.82C38.5863 29.1827 39.1303 29.364 39.8343 29.364C40.1756 29.364 40.5383 29.332 40.9223 29.268C41.3276 29.1827 41.7756 29.044 42.2663 28.852L43.1943 31.956ZM49.833 21.268V32.5H46.153V16.276H49.641V18.42C50.6437 17.5453 51.5717 16.916 52.425 16.532C53.2783 16.148 54.153 15.956 55.049 15.956C57.033 15.956 58.3877 16.8307 59.113 18.58C60.1797 17.6413 61.1717 16.9693 62.089 16.564C63.0063 16.1587 63.9343 15.956 64.873 15.956C66.3663 15.956 67.5077 16.4573 68.297 17.46C69.0863 18.4413 69.481 19.828 69.481 21.62V32.5H65.801V22.068C65.801 20.276 65.1183 19.38 63.753 19.38C63.2197 19.38 62.633 19.508 61.993 19.764C61.353 20.02 60.5743 20.5213 59.657 21.268V32.5H55.977V22.068C55.977 20.276 55.2943 19.38 53.929 19.38C53.3957 19.38 52.809 19.508 52.169 19.764C51.529 20.02 50.7503 20.5213 49.833 21.268ZM87.6205 23.412V25.332C87.6205 27.5933 87.0018 29.4067 85.7645 30.772C84.5272 32.1373 82.7778 32.82 80.5165 32.82C78.2552 32.82 76.5058 32.1373 75.2685 30.772C74.0312 29.4067 73.4125 27.5933 73.4125 25.332V23.412C73.4125 21.1507 74.0205 19.348 75.2365 18.004C76.4738 16.6387 78.2338 15.956 80.5165 15.956C82.7992 15.956 84.5485 16.6387 85.7645 18.004C87.0018 19.348 87.6205 21.1507 87.6205 23.412ZM83.8445 23.412C83.8445 22.1107 83.5565 21.0973 82.9805 20.372C82.4045 19.6253 81.5832 19.252 80.5165 19.252C79.4498 19.252 78.6285 19.6253 78.0525 20.372C77.4765 21.0973 77.1885 22.1107 77.1885 23.412V25.332C77.1885 26.6333 77.4765 27.6573 78.0525 28.404C78.6285 29.1507 79.4498 29.524 80.5165 29.524C81.5832 29.524 82.4045 29.1507 82.9805 28.404C83.5565 27.6573 83.8445 26.6333 83.8445 25.332V23.412ZM96.2908 29.62C97.0801 29.62 97.7308 29.492 98.2428 29.236C98.7548 28.9587 99.0108 28.5533 99.0108 28.02C99.0108 27.5507 98.8401 27.188 98.4988 26.932C98.1788 26.6547 97.5921 26.4093 96.7388 26.196L94.9148 25.716C93.5068 25.3533 92.4614 24.7453 91.7788 23.892C91.1174 23.0387 90.7868 22.0253 90.7868 20.852C90.7868 19.4653 91.2668 18.3027 92.2268 17.364C93.1868 16.4253 94.6694 15.956 96.6748 15.956C97.4854 15.956 98.3388 16.052 99.2348 16.244C100.131 16.436 101.069 16.7453 102.051 17.172L100.995 20.308C100.099 19.8813 99.2881 19.5827 98.5628 19.412C97.8374 19.2413 97.1974 19.156 96.6428 19.156C95.1281 19.156 94.3708 19.668 94.3708 20.692C94.3708 21.0973 94.4988 21.4173 94.7548 21.652C95.0321 21.8867 95.5334 22.1 96.2588 22.292L98.0828 22.772C99.6401 23.1773 100.771 23.796 101.475 24.628C102.2 25.46 102.563 26.5053 102.563 27.764C102.563 29.2573 102.051 30.4733 101.027 31.412C100.024 32.3507 98.4348 32.82 96.2588 32.82C94.4028 32.82 92.4508 32.3933 90.4028 31.54L91.3948 28.5C92.3974 28.9053 93.3041 29.1933 94.1148 29.364C94.9254 29.5347 95.6508 29.62 96.2908 29.62Z" fill="#2E2E2E"/>
<path d="M52.5 3.6016C39.7 -5.9984 12.8333 13.2683 1 24.1016C28.6 2.90158 42.5 3.26827 46 6.10162C53.5 9.26828 65.3 13.2016 52.5 3.6016Z" fill="#2E2E2E" stroke="#2E2E2E"/>
<path d="M63.6779 40.5C76.4779 50.1 103.345 30.8333 115.178 20C87.5779 41.2 73.6779 40.8333 70.1779 38C62.6779 34.8333 50.8779 30.9 63.6779 40.5Z" fill="#2E2E2E" stroke="#2E2E2E"/>
</svg>
